<?xml version="1.0" encoding="UTF-8"?>
<svg version="1.1" xmlns="http://www.w3.org/2000/svg" width="1798" height="543">
<path d="M0 0 C11.19913657 9.66290384 19.07071331 22.86009898 20.91015625 37.70703125 C21.90900502 55.72472629 18.26671698 71.59399177 6.16015625 85.64453125 C-4.16353619 96.24850493 -17.89149518 103.08622728 -32.75390625 103.91015625 C-43.70600854 104.03976693 -52.65869465 102.18408095 -63.08984375 98.70703125 C-103.67984375 139.29703125 -144.26984375 179.88703125 -186.08984375 221.70703125 C-185.09984375 225.33703125 -184.10984375 228.96703125 -183.08984375 232.70703125 C-179.65568079 249.21203894 -180.97616636 265.55622981 -190.20092773 279.97827148 C-199.50278602 293.58709952 -212.03167539 302.09487916 -228.08984375 305.70703125 C-243.02196141 308.18366578 -258.3901005 305.8063814 -271.2890625 297.6953125 C-285.31506079 287.61137646 -294.51193021 274.87603168 -297.43505859 257.74658203 C-299.62279402 242.13872778 -296.41900516 226.50605893 -287.08984375 213.70703125 C-276.57102583 200.30109057 -263.26645727 192.25488363 -246.24609375 189.92578125 C-237.27259839 189.30385583 -229.40736644 190.25556706 -220.82568359 192.74951172 C-219.56444672 193.1146286 -218.30320984 193.47974548 -217.00375366 193.85592651 C-215.56136826 194.27722336 -215.56136826 194.27722336 -214.08984375 194.70703125 C-198.01415768 178.79474175 -181.95845247 162.86254002 -165.92640591 146.90627861 C-158.48226234 139.49825602 -151.03167846 132.09693278 -143.56567383 124.7109375 C-137.05963066 118.27458332 -130.56591414 111.82609005 -124.08680874 105.3626157 C-120.65450385 101.93945043 -117.21626974 98.52275102 -113.7632122 95.1205101 C-110.51497681 91.9196938 -107.28344547 88.70293249 -104.06411362 85.47305489 C-102.87814187 84.28901312 -101.68613276 83.11098402 -100.48781395 81.93943977 C-98.85498469 80.34133098 -97.24506803 78.72319261 -95.6391449 77.09811401 C-94.73117881 76.19660048 -93.82321272 75.29508694 -92.88773251 74.36625481 C-90.76345966 71.80028964 -90.76345966 71.80028964 -91.25839329 68.51754951 C-92.0097741 65.97768743 -92.80376672 63.46586769 -93.65234375 60.95703125 C-97.61861878 46.63545687 -95.57528084 31.30217842 -89.02734375 18.14453125 C-80.59760648 3.38807293 -67.54188525 -6.92843765 -51.15234375 -11.54296875 C-32.93246434 -15.09728617 -14.891169 -11.05071581 0 0 Z " fill="#424143" transform="translate(484.08984375,50.29296875)"/>
<path d="M0 0 C15.18 0 30.36 0 46 0 C50.918802 6.1485025 55.70161399 12.22514823 60.25 18.625 C64.41845862 24.44313234 68.62824597 30.22280388 72.9375 35.9375 C79.09367624 44.10466666 85.15970321 52.33655972 91.21777344 60.57666016 C94.14230746 64.55322518 97.07135433 68.52646271 100 72.5 C101.16668888 74.08331696 102.33335553 75.66665031 103.5 77.25 C104.0775 78.03375 104.655 78.8175 105.25 79.625 C107 82 108.75 84.375 110.5 86.75 C111.07830566 87.53479736 111.65661133 88.31959473 112.25244141 89.12817383 C113.41114797 90.70079666 114.56967858 92.27354915 115.72802734 93.84643555 C118.76500324 97.96975715 121.80561734 102.09032982 124.8515625 106.20703125 C125.48320313 107.06167969 126.11484375 107.91632813 126.765625 108.796875 C127.97021951 110.42662052 129.17588143 112.05557784 130.3828125 113.68359375 C131.20265625 114.79347656 131.20265625 114.79347656 132.0390625 115.92578125 C132.75376709 116.89124878 132.75376709 116.89124878 133.48291016 117.8762207 C135.38559988 120.5398026 137.18426563 123.27639845 139 126 C139.495 63.63 139.495 63.63 140 0 C154.52 0 169.04 0 184 0 C184 67.65 184 135.3 184 205 C169.48 205 154.96 205 140 205 C134.06 196.585 134.06 196.585 128 188 C125.72053066 184.8639451 123.43723932 181.73619119 121.125 178.625 C119.94138886 177.02475245 118.75779564 175.42449164 117.57421875 173.82421875 C116.98431152 173.02806152 116.3944043 172.2319043 115.78662109 171.41162109 C107.75923495 160.57607582 99.77243374 149.71388583 91.89428711 138.76928711 C87.9660112 133.31893063 83.99287964 127.90316826 80 122.5 C75.46239869 116.3597139 70.96231997 110.19525976 66.5 104 C59.727376 94.62252061 52.86179139 85.31243118 46 76 C45.67 118.57 45.34 161.14 45 205 C30.15 205 15.3 205 0 205 C0 137.35 0 69.7 0 0 Z " fill="#424143" transform="translate(1105,151)"/>
<path d="M0 0 C20.53850632 17.039154 33.65312402 40.97530429 36.98046875 67.47265625 C37.30001223 72.66055943 37.37052985 77.83892407 37.35546875 83.03515625 C37.35492493 83.74164307 37.3543811 84.44812988 37.3538208 85.17602539 C37.3142487 96.36891575 36.48463449 106.78830723 32.98046875 117.47265625 C32.66698486 118.48271729 32.66698486 118.48271729 32.34716797 119.51318359 C27.10437247 136.12126012 18.34562608 149.31853783 5.98046875 161.47265625 C5.21863281 162.23320312 4.45679688 162.99375 3.671875 163.77734375 C-15.65646648 182.00627498 -43.13743882 189.91449202 -69.20703125 189.78515625 C-70.38813477 189.7802417 -71.56923828 189.77532715 -72.78613281 189.77026367 C-102.47495085 189.37471027 -129.55173425 178.22545043 -150.58056641 157.01611328 C-168.89029596 137.37680038 -177.47109548 110.24510681 -177.33203125 83.78515625 C-177.3263916 82.64957275 -177.32075195 81.51398926 -177.31494141 80.34399414 C-176.89568761 51.08547527 -165.98144786 25.86773805 -145.58984375 4.984375 C-106.87505235 -31.7629434 -41.39108202 -32.07407261 0 0 Z M-115.01953125 35.47265625 C-129.64856624 53.10641005 -132.6610298 73.31242585 -131.01953125 95.47265625 C-129.1263564 110.50446453 -121.7910909 124.02985156 -111.01953125 134.47265625 C-110.17455078 135.33117187 -110.17455078 135.33117187 -109.3125 136.20703125 C-98.03710137 146.8514465 -82.07258632 150.45638268 -67.01953125 150.47265625 C-51.20335343 149.52403054 -36.26703269 143.39673137 -25.26953125 131.78515625 C-12.3291481 116.48355829 -6.54687607 97.42475875 -8.01953125 77.47265625 C-9.77200913 61.28613325 -14.52785544 46.43777189 -26.01953125 34.47265625 C-26.70789063 33.7559375 -27.39625 33.03921875 -28.10546875 32.30078125 C-38.0887985 22.71390142 -51.32811258 17.55927678 -65.01953125 16.47265625 C-65.97666016 16.39337891 -65.97666016 16.39337891 -66.953125 16.3125 C-84.46736518 15.5510113 -103.24666406 22.25871195 -115.01953125 35.47265625 Z " fill="#424143" transform="translate(691.01953125,170.52734375)"/>
<path d="M0 0 C0.97484848 0.00222061 1.94969696 0.00444122 2.9540863 0.00672913 C4.05515213 0.00680466 5.15621796 0.00688019 6.29064941 0.00695801 C7.48854599 0.01211929 8.68644257 0.01728058 9.92063904 0.02259827 C11.14000656 0.02401321 12.35937408 0.02542816 13.61569214 0.02688599 C17.52856349 0.03250485 21.4413786 0.04506055 25.35423279 0.05775452 C27.99941426 0.06276709 30.64459662 0.06733041 33.28977966 0.07142639 C39.79045005 0.08248041 46.2910874 0.09923688 52.79173279 0.12025452 C55.80090903 5.90748428 58.28652923 11.72730524 60.56517029 17.83509827 C60.9209465 18.77741302 61.27672272 19.71972778 61.64328003 20.69059753 C62.41511452 22.7356702 63.18512566 24.78143176 63.95350647 26.82780457 C66.0681704 32.45763517 68.19820534 38.08165068 70.32688904 43.70619202 C70.99644875 45.47661613 70.99644875 45.47661613 71.67953491 47.2828064 C76.59671828 60.27174492 81.59573815 73.22880775 86.60423279 86.18275452 C87.05834534 87.35770477 87.51245789 88.53265503 87.98033142 89.74320984 C90.30264747 95.75182076 92.62580518 101.76010565 94.94944763 107.76820374 C97.854688 115.2813844 100.75538277 122.79631409 103.65501404 130.31166077 C104.14117287 131.57161005 104.62733315 132.83155879 105.11349487 134.09150696 C107.01514778 139.02002436 108.91663912 143.948604 110.81758118 148.87739563 C115.14410542 160.09526125 119.47085657 171.31289551 123.83860779 182.51478577 C124.41984465 184.00745399 125.00106306 185.50012939 125.58226013 186.99281311 C126.59963672 189.6053158 127.62124781 192.21610039 128.64573669 194.82582092 C129.07289978 195.92200745 129.50006287 197.01819397 129.94017029 198.14759827 C130.30288025 199.07306458 130.66559021 199.99853088 131.03929138 200.95204163 C131.79173279 203.12025452 131.79173279 203.12025452 131.79173279 205.12025452 C114.96173279 205.12025452 98.13173279 205.12025452 80.79173279 205.12025452 C78.81173279 199.88150452 76.83173279 194.64275452 74.79173279 189.24525452 C74.16524841 187.59283752 73.53876404 185.94042053 72.89329529 184.2379303 C72.40084676 182.93057416 71.90864243 181.62312601 71.41673279 180.31556702 C71.02808044 179.29450867 71.02808044 179.29450867 70.63157654 178.25282288 C68.79173279 173.34839812 68.79173279 173.34839812 68.79173279 171.12025452 C40.08173279 171.12025452 11.37173279 171.12025452 -18.20826721 171.12025452 C-19.19826721 174.42025452 -20.18826721 177.72025452 -21.20826721 181.12025452 C-21.93681091 183.20481333 -22.68717936 185.28202279 -23.46998596 187.34681702 C-23.8279425 188.29637268 -24.18589905 189.24592834 -24.55470276 190.22425842 C-24.99725403 191.38618713 -25.4398053 192.54811584 -25.89576721 193.74525452 C-28.03045471 199.37587952 -28.03045471 199.37587952 -30.20826721 205.12025452 C-47.03826721 205.12025452 -63.86826721 205.12025452 -81.20826721 205.12025452 C-79.17187281 198.33227319 -77.0468233 191.81875356 -74.46217346 185.25306702 C-74.09951385 184.3221524 -73.73685425 183.39123779 -73.36320496 182.43211365 C-72.57969334 180.42199325 -71.79446296 178.41254211 -71.00767517 176.40370178 C-68.85570907 170.90865148 -66.71685057 165.40849297 -64.57545471 159.90931702 C-64.13048141 158.76775146 -63.68550812 157.62618591 -63.22705078 156.45002747 C-58.57919155 144.52112893 -53.98510626 132.57176067 -49.39576721 120.62025452 C-47.73077106 116.28677955 -46.06529749 111.95348818 -44.39967346 107.62025452 C-43.98070297 106.53022125 -43.56173248 105.44018799 -43.13006592 104.31712341 C-34.92261875 82.96842117 -26.6828335 61.63217501 -18.43647766 40.29847717 C-17.25578457 37.24321451 -16.07589211 34.18764396 -14.89625549 31.13197327 C-13.20187863 26.74351927 -11.50489257 22.35608508 -9.80537415 17.96961975 C-9.20490228 16.4186996 -8.60531536 14.8674365 -8.00666809 13.31581116 C-7.20526191 11.23923458 -6.40061618 9.16394522 -5.59498596 7.08900452 C-5.15372375 5.94882874 -4.71246155 4.80865295 -4.25782776 3.63392639 C-2.80427841 0.1527112 -2.80427841 0.1527112 0 0 Z M24.79173279 46.12025452 C24.53388 46.83561371 24.27602722 47.5509729 24.01036072 48.28800964 C21.54084672 55.13899164 19.0710295 61.98986421 16.60089874 68.84062386 C15.08480505 73.0454562 13.56895531 77.25037636 12.05331421 81.45537186 C11.07350264 84.17348055 10.09332244 86.89145627 9.11317444 89.60944366 C8.38731293 91.62299019 7.66212002 93.63677661 6.93699646 95.65058899 C4.74062573 101.74657312 2.53304717 107.83793011 0.28782654 113.91615295 C-0.08934509 114.94030304 -0.46651672 115.96445312 -0.8551178 117.01963806 C-1.54894007 118.90019194 -2.2466841 120.7793055 -2.94911194 122.65666199 C-3.25055115 123.47464264 -3.55199036 124.29262329 -3.86256409 125.13539124 C-4.12452576 125.83848419 -4.38648743 126.54157715 -4.65638733 127.26597595 C-5.35089668 129.27703595 -5.35089668 129.27703595 -5.20826721 132.12025452 C14.92173279 132.12025452 35.05173279 132.12025452 55.79173279 132.12025452 C54.1426912 124.5873318 54.1426912 124.5873318 51.85569763 117.39881897 C51.48125519 116.36936661 51.10681274 115.33991425 50.72102356 114.27926636 C50.31896698 113.19167526 49.9169104 112.10408417 49.50267029 110.98353577 C48.86949387 109.24972908 48.86949387 109.24972908 48.223526 107.480896 C46.87656202 103.79621608 45.52183575 100.11444793 44.16673279 96.43275452 C43.27948919 94.01042065 42.39276599 91.58789611 41.50657654 89.16517639 C39.77191834 84.42478047 38.03444729 79.68543134 36.29466248 74.94691467 C32.77154541 65.3460881 29.27985398 55.73384088 25.79173279 46.12025452 C25.46173279 46.12025452 25.13173279 46.12025452 24.79173279 46.12025452 Z " fill="#424143" transform="translate(1390.208267211914,150.87974548339844)"/>
<path d="M0 0 C48.18 0 96.36 0 146 0 C146 12.87 146 25.74 146 39 C112.67 39 79.34 39 45 39 C45 52.86 45 66.72 45 81 C77.67 81 110.34 81 144 81 C144 94.2 144 107.4 144 121 C111.33 121 78.66 121 45 121 C45 135.85 45 150.7 45 166 C78.33 166 111.66 166 146 166 C146 178.87 146 191.74 146 205 C97.82 205 49.64 205 0 205 C0 137.35 0 69.7 0 0 Z " fill="#424143" transform="translate(934,151)"/>
<path d="M0 0 C17.180625 -0.061875 34.36125 -0.12375 52.0625 -0.1875 C57.45988525 -0.21481201 62.85727051 -0.24212402 68.41821289 -0.27026367 C75.07897949 -0.28381348 75.07897949 -0.28381348 78.2106781 -0.28633118 C80.36837121 -0.29089667 82.52605733 -0.30136084 84.68370056 -0.31672668 C107.80501368 -0.47295956 129.64680557 1.65481451 147.625 18.0625 C160.61007655 32.01754612 166.69269467 50.01165369 166.25 68.9921875 C165.01785106 83.81647948 160.95277877 96.9583919 152 109 C151.278125 110.010625 150.55625 111.02125 149.8125 112.0625 C138.44121646 125.18321178 120.67515475 131.20015977 103.90740967 132.79873657 C98.53223144 133.17082958 93.15904103 133.12144988 87.7734375 133.09765625 C86.68264893 133.09664917 85.59186035 133.09564209 84.46801758 133.09460449 C80.43700085 133.08941675 76.40599924 133.07545588 72.375 133.0625 C63.34125 133.041875 54.3075 133.02125 45 133 C45 156.76 45 180.52 45 205 C30.15 205 15.3 205 0 205 C0 137.35 0 69.7 0 0 Z M45 39 C45 56.82 45 74.64 45 93 C53.4975 93.103125 61.995 93.20625 70.75 93.3125 C73.40772461 93.35802002 76.06544922 93.40354004 78.80371094 93.45043945 C80.94725285 93.46506385 83.09080882 93.47779988 85.234375 93.48828125 C86.31734863 93.51386108 87.40032227 93.53944092 88.51611328 93.5657959 C97.17692353 93.5706659 105.56372478 91.85684955 112.27215576 86.02461243 C118.66802158 79.23839448 120.66074645 72.52125645 120.40625 63.28515625 C119.40879838 55.2192254 115.37492623 49.41401817 109.11328125 44.40234375 C100.81230542 38.8939328 91.56025492 38.85327436 81.9140625 38.90234375 C80.5077356 38.90385437 80.5077356 38.90385437 79.07299805 38.90539551 C75.59031949 38.91060446 72.10765844 38.92456565 68.625 38.9375 C60.82875 38.958125 53.0325 38.97875 45 39 Z " fill="#424143" transform="translate(750,151)"/>
<path d="M0 0 C17.180625 -0.061875 34.36125 -0.12375 52.0625 -0.1875 C57.45988525 -0.21481201 62.85727051 -0.24212402 68.41821289 -0.27026367 C75.07897949 -0.28381348 75.07897949 -0.28381348 78.2106781 -0.28633118 C80.36837121 -0.29089667 82.52605733 -0.30136084 84.68370056 -0.31672668 C107.82240387 -0.47307707 129.88993003 1.62303063 147.75 18.25 C160.32017212 31.75240976 166.46605193 50.17076406 166.1484375 68.43359375 C165.0454838 87.50308265 158.51330491 103.51625761 144.59765625 116.78125 C128.24241623 130.75083847 108.42309841 133.18888658 87.7734375 133.09765625 C86.68264893 133.09664917 85.59186035 133.09564209 84.46801758 133.09460449 C80.43700085 133.08941675 76.40599924 133.07545588 72.375 133.0625 C63.34125 133.041875 54.3075 133.02125 45 133 C45 156.76 45 180.52 45 205 C30.15 205 15.3 205 0 205 C0 137.35 0 69.7 0 0 Z M45 39 C45 56.82 45 74.64 45 93 C57.808125 93.12375 57.808125 93.12375 70.875 93.25 C74.88889893 93.30462402 74.88889893 93.30462402 78.98388672 93.36035156 C81.13247885 93.37204673 83.28107992 93.38223659 85.4296875 93.390625 C86.52289307 93.41108887 87.61609863 93.43155273 88.74243164 93.45263672 C98.32738895 93.45694747 106.39563867 91.29209369 113.53125 84.64453125 C119.05746169 78.45693784 120.39467713 72.01791848 120.265625 63.94140625 C119.61136983 56.69649238 117.02237542 51.55258934 111.75 46.5625 C102.79383799 39.26815459 93.03531738 38.84577084 81.9140625 38.90234375 C80.5077356 38.90385437 80.5077356 38.90385437 79.07299805 38.90539551 C75.59031949 38.91060446 72.10765844 38.92456565 68.625 38.9375 C60.82875 38.958125 53.0325 38.97875 45 39 Z " fill="#424143" transform="translate(1532,151)"/>
<path d="M0 0 C1.26416016 1.57519531 1.26416016 1.57519531 2.5390625 3.828125 C3.02777832 4.67552246 3.51649414 5.52291992 4.02001953 6.39599609 C4.54966309 7.33781738 5.07930664 8.27963867 5.625 9.25 C6.80019826 11.29014953 7.97737543 13.32916007 9.15625 15.3671875 C9.78144531 16.45225586 10.40664063 17.53732422 11.05078125 18.65527344 C13.98772778 23.69487356 17.0262546 28.67102901 20.06890869 33.64730835 C27.13098657 45.20037473 34.06769873 56.82442346 40.95776367 68.48074341 C46.60431592 78.02939046 52.33578163 87.51610386 58.25683594 96.89819336 C58.98435059 98.05653687 58.98435059 98.05653687 59.7265625 99.23828125 C60.14502441 99.89868408 60.56348633 100.55908691 60.99462891 101.23950195 C62 103 62 103 63 106 C14.66972687 134.34262028 -41.23422948 143.23348486 -95.8828125 129.82861328 C-114.46528525 124.88900547 -114.46528525 124.88900547 -123 121 C-123.33 120.34 -123.66 119.68 -124 119 C-123.21679968 116.65674931 -122.36435593 114.42805817 -121.4140625 112.15234375 C-121.12618866 111.44597778 -120.83831482 110.73961182 -120.54171753 110.01184082 C-119.57701841 107.65056016 -118.60110112 105.29408784 -117.625 102.9375 C-116.94146651 101.27180807 -116.25853449 99.6058692 -115.57617188 97.93969727 C-113.76188588 93.51648942 -111.93724562 89.09763331 -110.10900879 84.68017578 C-109.02407819 82.05819052 -107.9409504 79.43546812 -106.85839844 76.8125 C-101.92661145 64.866245 -96.96804683 52.93121387 -92 41 C-91.26284858 39.22917062 -90.52570672 37.45833726 -89.78857422 35.6875 C-85.52947701 25.45676443 -81.26659978 15.22760888 -77 5 C-76.46632812 5.14622803 -75.93265625 5.29245605 -75.3828125 5.44311523 C-72.923375 6.11355662 -70.46174006 6.77556545 -68 7.4375 C-66.74123047 7.78264648 -66.74123047 7.78264648 -65.45703125 8.13476562 C-44.69447964 13.68754106 -23.7175184 10.87111747 -4.76953125 0.81640625 C-3 0 -3 0 0 0 Z " fill="#94C83D" transform="translate(289,370)"/>
<path d="M0 0 C3.54166678 0.58245071 5.19663626 1.82472784 7.70794678 4.34718323 C8.42864853 5.06376099 9.14935028 5.78033875 9.89189148 6.51863098 C10.67232315 7.30984848 11.45275482 8.10106598 12.25683594 8.91625977 C13.08647354 9.74545929 13.91611115 10.57465881 14.77088928 11.4289856 C17.04258546 13.7024137 19.30748606 15.9823603 21.56954861 18.26536679 C23.93579134 20.65036295 26.31053213 23.0268665 28.68438721 25.40428162 C33.17749586 29.90671465 37.66290246 34.41674038 42.14559674 38.92953962 C47.24970269 44.06717731 52.36232952 49.19629934 57.47569227 54.32472146 C67.99330816 64.87369527 78.50016775 75.43332303 89 86 C87.4237263 89.28980234 85.6023413 91.82589621 83.25 94.625 C70.3957218 110.54756884 66.82065099 127.25544306 64 147 C23.08 147 -17.84 147 -60 147 C-60 90.71731582 -37.90967904 40.91712748 0 0 Z " fill="#4C5B31" transform="translate(97,152)"/>
<path d="M0 0 C40.92 0 81.84 0 124 0 C122.83372438 26.8243393 122.83372438 26.8243393 121.3125 35.125 C121.05194824 36.60081543 121.05194824 36.60081543 120.78613281 38.10644531 C112.98352784 80.229694 92.7347547 115.68387253 64 147 C60.84772849 145.60363479 58.72059618 143.96829025 56.29205322 141.53256226 C55.2110006 140.45563362 55.2110006 140.45563362 54.10810852 139.35694885 C53.32767685 138.56932663 52.54724518 137.78170441 51.74316406 136.97021484 C50.49870766 135.72619652 50.49870766 135.72619652 49.22911072 134.45704651 C46.48651536 131.71305719 43.7510732 128.96205027 41.015625 126.2109375 C39.11661233 124.30708432 37.2160969 122.40473405 35.31561279 120.50234985 C30.82452149 116.00504509 26.33855233 111.50266689 21.85440326 106.99844134 C16.74832462 101.86999956 11.63655841 96.74724302 6.52430773 91.62495494 C-3.99013346 81.08961478 -14.49741465 70.54716018 -25 60 C-24.03980369 58.71892657 -23.07949575 57.4379368 -22.11914062 56.15698242 C-21.5843811 55.44362228 -21.04962158 54.73026215 -20.49865723 53.99528503 C-19.36788194 52.48979133 -18.23203178 50.98810745 -17.09375 49.48828125 C-6.05665274 34.42047935 -2.45280968 18.39607259 0 0 Z " fill="#6BA543" transform="translate(328,298)"/>
<path d="M0 0 C0 40.92 0 81.84 0 124 C-9.405 125.485 -9.405 125.485 -19 127 C-27.16683916 129.43134906 -34.47963645 132.09519585 -42 136 C-42.99 136 -43.98 136 -45 136 C-46.26416016 134.42480469 -46.26416016 134.42480469 -47.5390625 132.171875 C-48.02777832 131.32447754 -48.51649414 130.47708008 -49.02001953 129.60400391 C-49.54966309 128.66218262 -50.07930664 127.72036133 -50.625 126.75 C-51.80019826 124.70985047 -52.97737543 122.67083993 -54.15625 120.6328125 C-54.78144531 119.54774414 -55.40664062 118.46267578 -56.05078125 117.34472656 C-58.98772778 112.30512644 -62.0262546 107.32897099 -65.06890869 102.35269165 C-72.13098657 90.79962527 -79.06769873 79.17557654 -85.95776367 67.51925659 C-91.60431592 57.97060954 -97.33578163 48.48389614 -103.25683594 39.10180664 C-103.7418457 38.32957764 -104.22685547 37.55734863 -104.7265625 36.76171875 C-105.14502441 36.10131592 -105.56348633 35.44091309 -105.99462891 34.76049805 C-107 33 -107 33 -108 30 C-74.73680656 10.26759711 -38.75536803 0 0 0 Z " fill="#6BA543" transform="translate(245,91)"/>
<path d="M0 0 C14.85 0 29.7 0 45 0 C45 67.65 45 135.3 45 205 C30.15 205 15.3 205 0 205 C0 137.35 0 69.7 0 0 Z " fill="#424143" transform="translate(1716,151)"/>
<path d="M0 0 C38.96367072 3.38814528 79.32341061 12.40789204 111 37 C106.45498196 42.40141178 101.7110563 47.55905227 96.83349609 52.66088867 C95.63679039 53.91563995 95.63679039 53.91563995 94.41590881 55.19573975 C87.09303926 62.85633568 79.70666657 70.45488558 72.29558372 78.03003979 C67.32722284 83.11115043 62.38400374 88.21263491 57.49511719 93.37036133 C53.21075795 97.89024332 48.88512609 102.36548996 44.50554907 106.79324514 C42.19494739 109.13210671 39.91670195 111.4919861 37.67286301 113.89522362 C35.16161191 116.57704228 32.58382341 119.17285048 29.97802734 121.76245117 C29.26454636 122.56064774 28.55106537 123.3588443 27.81596375 124.18122864 C25.59164429 126.30119324 25.59164429 126.30119324 20 129 C13.4 127.68 6.8 126.36 0 125 C0 83.75 0 42.5 0 0 Z " fill="#4C5B31" transform="translate(252,91)"/>
<path d="M0 0 C22.98558688 22.27608127 34.31197023 65.21498536 37 96 C37 100.95 37 105.9 37 111 C-3.92 111 -44.84 111 -87 111 C-91 91 -91 91 -88.02630615 85.14019775 C-85.72270203 82.73661804 -85.72270203 82.73661804 -83.10058594 80.37597656 C-81.77009972 79.04023338 -81.77009972 79.04023338 -80.41273499 77.67750549 C-77.99027723 75.26882141 -75.52774742 72.92551425 -73.03002834 70.59657383 C-70.42577034 68.14345819 -67.89033708 65.6210948 -65.34649658 63.10565186 C-60.53040549 58.36384854 -55.65656069 53.68647146 -50.75826001 49.02980304 C-45.1802444 43.72105734 -39.67110064 38.34310233 -34.16635084 32.95858431 C-22.85185961 21.8942464 -11.45502728 10.91888943 0 0 Z " fill="#4C5B31" transform="translate(414,180)"/>
<path d="M0 0 C41.25 0 82.5 0 125 0 C125.99 4.95 126.98 9.9 128 15 C129.58839901 19.39500718 129.58839901 19.39500718 131.328125 23.73046875 C132.12879562 26.43505961 132.07728907 27.40472659 131 30 C128.82397461 31.71313477 128.82397461 31.71313477 125.90234375 33.44140625 C124.80728516 34.09753906 123.71222656 34.75367188 122.58398438 35.4296875 C121.3686051 36.14082247 120.15310668 36.85175383 118.9375 37.5625 C117.67575911 38.31267098 116.41470402 39.06399651 115.15429688 39.81640625 C111.79506944 41.81775212 108.42721784 43.80411617 105.05731201 45.78741455 C101.70131219 47.76545022 98.35268656 49.75586806 95.00390625 51.74609375 C90.99291847 54.12921276 86.98151444 56.51159593 82.96679688 58.88842773 C73.92289941 64.24509874 64.91752392 69.66198785 55.9375 75.125 C54.77093028 75.83392862 53.6043453 76.54283211 52.43774414 77.25170898 C47.62858343 80.17610845 42.82328782 83.10621449 38.03125 86.05859375 C36.66667833 86.89324823 35.30209621 87.72788563 33.9375 88.5625 C32.28041016 89.58537109 32.28041016 89.58537109 30.58984375 90.62890625 C28 92 28 92 25 92 C11 63.276 11 63.276 11 57 C8.525 57.495 8.525 57.495 6 58 C6.33 57.34 6.66 56.68 7 56 C7.99 56 8.98 56 10 56 C9.63648438 54.94039063 9.63648438 54.94039063 9.265625 53.859375 C3.48953108 36.1756413 1.6240008 18.67600918 0 0 Z " fill="#94C83D" transform="translate(37,306)"/>
<path d="M0 0 C3.00746358 1.23614999 5.53202777 3.03430032 8.20994377 4.86809063 C9.28760002 5.60156719 10.36525627 6.33504375 11.47556877 7.09074688 C12.29541252 7.65664532 13.11525627 8.22254375 13.95994377 8.80559063 C1.33508925 40.66942382 -11.82296836 72.31842852 -24.92067146 103.9899168 C-25.51084808 105.41733952 -25.51084808 105.41733952 -26.11294746 106.87359905 C-26.85010324 108.6563709 -27.58750414 110.43904142 -28.32519722 112.221591 C-29.9183499 116.07459969 -31.50425464 119.92923921 -33.04005623 123.80559063 C-53.23053815 117.71390557 -73.4525307 102.76030788 -88.04005623 87.80559063 C-86.65182221 84.68437365 -85.03848641 82.54809884 -82.63749886 80.12887859 C-81.93374123 79.41514584 -81.2299836 78.70141308 -80.50489998 77.96605206 C-79.73291267 77.19340008 -78.96092537 76.4207481 -78.16554451 75.62468243 C-77.3523777 74.8031921 -76.53921089 73.98170177 -75.70140266 73.1353178 C-73.00985592 70.41965962 -70.31069389 67.7117372 -67.61036873 65.00480938 C-66.21211964 63.5998623 -64.81387162 62.19491415 -63.41579235 60.78979808 C-59.02232829 56.37488079 -54.62283218 51.96603407 -50.22023201 47.5602293 C-45.67537724 43.01173225 -41.14384459 38.45024915 -36.61812603 33.88271874 C-32.73220366 29.96215664 -28.83676882 26.05121884 -24.93383777 22.14758903 C-22.60264327 19.81560009 -20.27684531 17.47863664 -17.95830345 15.13405704 C-15.37492287 12.52397545 -12.77638773 9.92999001 -10.17335701 7.33952618 C-9.40541817 6.55675304 -8.63747932 5.77397991 -7.84626961 4.96748638 C-7.13687233 4.26785275 -6.42747505 3.56821911 -5.69658089 2.84738445 C-5.08342081 2.23221305 -4.47026073 1.61704165 -3.83852005 0.98322868 C-2.04005623 -0.19440937 -2.04005623 -0.19440937 0 0 Z " fill="#4C5B31" transform="translate(192.0400562286377,363.19440937042236)"/>
<path d="M0 0 C3.30931396 3.23397056 6.39581306 6.53269631 9.3125 10.125 C10.00988281 10.97320312 10.70726562 11.82140625 11.42578125 12.6953125 C13 15 13 15 13 18 C11.65690613 19.71223736 11.65690613 19.71223736 9.73510742 21.62565613 C9.01149017 22.35339737 8.28787292 23.08113861 7.54232788 23.83093262 C6.33608261 25.02099915 6.33608261 25.02099915 5.10546875 26.23510742 C4.26666168 27.07435257 3.42785461 27.91359772 2.56362915 28.77827454 C0.25915075 31.08101821 -2.05185913 33.3769588 -4.36590195 35.67008376 C-6.78158628 38.06704332 -9.18880533 40.47247322 -11.59692383 42.87702942 C-16.15960113 47.43037389 -20.72987345 51.9760157 -25.30290318 56.5189603 C-30.50821804 61.69076964 -35.70504008 66.87107687 -40.90115547 72.05212629 C-51.59132705 82.71092081 -62.29215197 93.35896121 -73 104 C-85.43489254 98.18294425 -98.68932514 78.04010335 -105 66 C-105 65.01 -105 64.02 -105 63 C-103.01640028 61.55600467 -101.10957861 60.35227119 -98.984375 59.1484375 C-98.35047852 58.77734863 -97.71658203 58.40625977 -97.06347656 58.02392578 C-95.68735948 57.21996967 -94.30827149 56.42108254 -92.92663574 55.62664795 C-89.98274379 53.93379863 -87.05303434 52.21706903 -84.12213135 50.50186157 C-82.61584824 49.6208269 -81.10879958 48.74109987 -79.60101318 47.86264038 C-72.60015614 43.78182012 -65.66759434 39.59500538 -58.75 35.375 C-57.60937655 34.68060921 -56.46867003 33.98635483 -55.32788086 33.29223633 C-52.47018304 31.55299719 -49.61348561 29.81212216 -46.75701904 28.07086182 C-41.2776114 24.73129162 -35.7958426 21.39560486 -30.3125 18.0625 C-29.72621826 17.70606415 -29.13993652 17.3496283 -28.53588867 16.98239136 C-19.07505081 11.23314599 -9.57054739 5.56458969 0 0 Z " fill="#6BA543" transform="translate(172,341)"/>
<path d="M0 0 C13 0 13 0 16.98046875 3.4453125 C18.09287741 4.9745624 19.16078696 6.53694502 20.1875 8.125 C20.76717529 8.94307129 21.34685059 9.76114258 21.9440918 10.60400391 C23.11490286 12.26420331 24.26769239 13.93727048 25.40136719 15.62304688 C27.23954169 18.35616645 29.15842393 21.02182915 31.09301758 23.68701172 C32.21954365 25.24633129 33.32371814 26.82173353 34.42578125 28.3984375 C38.19112264 33.66648721 42.11479065 38.81972087 46 44 C46.33 29.48 46.66 14.96 47 0 C51.29 0 55.58 0 60 0 C60 22.77 60 45.54 60 69 C47 69 47 69 42.8125 64.875 C41.51002445 62.93756762 40.2413516 60.97715275 39 59 C37.85422375 57.39670893 36.70788903 55.79375291 35.54760742 54.20092773 C34.28380696 52.4604854 33.04049792 50.70688464 31.80078125 48.94921875 C28.00813973 43.58539919 24.14492788 38.2724576 20.2902832 32.953125 C19.76136475 32.22222656 19.23244629 31.49132812 18.6875 30.73828125 C17.98173828 29.76435425 17.98173828 29.76435425 17.26171875 28.77075195 C16.14384783 27.20188241 15.06857015 25.60285523 14 24 C13.67 38.85 13.34 53.7 13 69 C8.71 69 4.42 69 0 69 C0 46.23 0 23.46 0 0 Z " fill="#6BA543" transform="translate(1079,419)"/>
<path d="M0 0 C3.4396155 3.12854041 5.74765232 6.59138806 8.0546875 10.58203125 C8.43256409 11.22393906 8.81044067 11.86584686 9.19976807 12.52720642 C10.00919172 13.90352216 10.81591763 15.28142742 11.62017822 16.6607666 C13.32151109 19.57816477 15.03625171 22.48759457 16.75057983 25.39736938 C17.61499217 26.86459317 18.47878189 28.33218395 19.34194946 29.80014038 C22.88207152 35.81677336 26.48294464 41.79447838 30.125 47.75 C30.67244873 48.64589844 31.21989746 49.54179687 31.78393555 50.46484375 C32.91409983 52.3138155 34.04455717 54.16260817 35.17529297 56.01123047 C37.20688233 59.33886185 39.23137974 62.67076282 41.25390625 66.00390625 C41.61866562 66.60478058 41.98342499 67.20565491 42.35923767 67.82473755 C44.19354958 70.84719448 46.02547944 73.87105641 47.85327148 76.89746094 C51.04660972 82.17908738 54.26080641 87.44163336 57.59375 92.63671875 C58.12266846 93.46969482 58.65158691 94.3026709 59.1965332 95.16088867 C60.16076475 96.67362856 61.13769582 98.1783804 62.12963867 99.6730957 C63.38671875 101.65625 63.38671875 101.65625 65 105 C64.26953125 107.46875 64.26953125 107.46875 63 109 C59.46792975 108.41660724 57.80514815 107.18153744 55.29205322 104.67300415 C54.57135147 103.96076187 53.85064972 103.24851959 53.10810852 102.51469421 C52.32767685 101.72818985 51.54724518 100.94168549 50.74316406 100.13134766 C49.91352646 99.30696701 49.08388885 98.48258636 48.22911072 97.63322449 C45.48367605 94.90101441 42.74938408 92.15795122 40.015625 89.4140625 C38.11673559 87.51584054 36.21605344 85.61941653 34.31561279 83.7227478 C30.33243502 79.74502722 26.35562331 75.76102409 22.38232422 71.7734375 C17.78564292 67.16041855 13.17823842 62.55832192 8.56513619 57.96172869 C4.60626813 54.01646316 0.65326215 50.06539556 -3.29488015 46.10939634 C-5.65369437 43.74590026 -8.01450985 41.3844796 -10.3806076 39.02827835 C-13.01463093 36.40183905 -15.63890273 33.76603558 -18.26074219 31.12744141 C-19.44353508 29.95375755 -19.44353508 29.95375755 -20.65022278 28.75636292 C-21.35964523 28.03848099 -22.06906769 27.32059906 -22.79998779 26.58096313 C-23.42161175 25.9582081 -24.0432357 25.33545307 -24.68369675 24.69382668 C-26 23 -26 23 -26 20 C-24.015625 18.0546875 -24.015625 18.0546875 -21.25 15.875 C-20.25484375 15.08738281 -19.2596875 14.29976562 -18.234375 13.48828125 C-5.65877161 3.77251441 -5.65877161 3.77251441 0 0 Z " fill="#94C83D" transform="translate(130,125)"/>
<path d="M0 0 C3.54166678 0.58245071 5.19663626 1.82472784 7.70794678 4.34718323 C8.42864853 5.06376099 9.14935028 5.78033875 9.89189148 6.51863098 C10.67232315 7.30984848 11.45275482 8.10106598 12.25683594 8.91625977 C13.08647354 9.74545929 13.91611115 10.57465881 14.77088928 11.4289856 C17.04258546 13.7024137 19.30748606 15.9823603 21.56954861 18.26536679 C23.93579134 20.65036295 26.31053213 23.0268665 28.68438721 25.40428162 C33.17749586 29.90671465 37.66290246 34.41674038 42.14559674 38.92953962 C47.24970269 44.06717731 52.36232952 49.19629934 57.47569227 54.32472146 C67.99330816 64.87369527 78.50016775 75.43332303 89 86 C84.19885265 96.20576117 72.06466096 102.74355533 63 109 C59.5603845 105.87145959 57.25234768 102.40861194 54.9453125 98.41796875 C54.56743591 97.77606094 54.18955933 97.13415314 53.80023193 96.47279358 C52.99080828 95.09647784 52.18408237 93.71857258 51.37982178 92.3392334 C49.67848891 89.42183523 47.96374829 86.51240543 46.24942017 83.60263062 C45.38500783 82.13540683 44.52121811 80.66781605 43.65805054 79.19985962 C40.11792848 73.18322664 36.51705536 67.20552162 32.875 61.25 C32.32755127 60.35410156 31.78010254 59.45820313 31.21606445 58.53515625 C30.08590017 56.6861845 28.95544283 54.83739183 27.82470703 52.98876953 C25.79311767 49.66113815 23.76862026 46.32923718 21.74609375 42.99609375 C21.38133438 42.39521942 21.01657501 41.79434509 20.64076233 41.17526245 C18.80645042 38.15280552 16.97452056 35.12894359 15.14672852 32.10253906 C11.95339028 26.82091262 8.73919359 21.55836664 5.40625 16.36328125 C4.61287231 15.11381714 4.61287231 15.11381714 3.8034668 13.83911133 C2.83923525 12.32637144 1.86230418 10.8216196 0.87036133 9.3269043 C-0.38671875 7.34375 -0.38671875 7.34375 -2 4 C-1.26953125 1.53125 -1.26953125 1.53125 0 0 Z " fill="#4C5B31" transform="translate(296,363)"/>
<path d="M0 0 C5.28 0 10.56 0 16 0 C19.43382422 7.4100701 22.60210176 14.8573845 25.5390625 22.4765625 C25.9465976 23.52725922 26.35413269 24.57795593 26.77401733 25.66049194 C27.62757373 27.86323594 28.47957656 30.06658252 29.33007812 32.27050781 C30.62485704 35.62462967 31.92533237 38.97650135 33.2265625 42.328125 C34.06023357 44.48164012 34.89357809 46.63528169 35.7265625 48.7890625 C36.11099518 49.77991852 36.49542786 50.77077454 36.89151001 51.79165649 C39.08460785 57.48380927 41.11708148 63.19762812 43 69 C38.05 69 33.1 69 28 69 C26.35 65.04 24.7 61.08 23 57 C13.1 57 3.2 57 -7 57 C-8.65 60.96 -10.3 64.92 -12 69 C-16.95 69 -21.9 69 -27 69 C-22.8244061 56.81461905 -18.26247928 44.80930383 -13.50390625 32.84033203 C-12.36590256 29.9771108 -11.23339974 27.11175746 -10.1015625 24.24609375 C-9.3675068 22.39310265 -8.63314291 20.54023359 -7.8984375 18.6875 C-7.39985733 17.42631348 -7.39985733 17.42631348 -6.89120483 16.13964844 C-4.72395551 10.69698934 -2.40843427 5.34047031 0 0 Z M8 15 C5.19358196 21.06186296 2.68515288 27.21932819 0.25 33.4375 C-0.22675171 34.64575439 -0.22675171 34.64575439 -0.71313477 35.87841797 C-1.00889404 36.63912598 -1.30465332 37.39983398 -1.609375 38.18359375 C-1.87717773 38.86993896 -2.14498047 39.55628418 -2.42089844 40.26342773 C-3.10544926 42.01111691 -3.10544926 42.01111691 -3 44 C4.26 44 11.52 44 19 44 C16.74771507 36.35640029 16.74771507 36.35640029 14.17578125 28.8671875 C13.86962891 28.0421875 13.56347656 27.2171875 13.24804688 26.3671875 C12.78495117 25.13355469 12.78495117 25.13355469 12.3125 23.875 C11.99216797 23.01390625 11.67183594 22.1528125 11.34179688 21.265625 C10.56399918 19.17601926 9.78338154 17.08751732 9 15 C8.67 15 8.34 15 8 15 Z " fill="#6BA543" transform="translate(1400,419)"/>
<path d="M0 0 C15.84 0 31.68 0 48 0 C48 3.63 48 7.26 48 11 C36.45 11 24.9 11 13 11 C13 16.61 13 22.22 13 28 C24.22 28 35.44 28 47 28 C47 31.63 47 35.26 47 39 C35.78 39 24.56 39 13 39 C13 44.94 13 50.88 13 57 C24.55 57 36.1 57 48 57 C48 60.96 48 64.92 48 69 C32.16 69 16.32 69 0 69 C0 46.23 0 23.46 0 0 Z " fill="#6BA543" transform="translate(1713,419)"/>
<path d="M0 0 C4.95 0 9.9 0 15 0 C16.28583984 3.36832031 16.28583984 3.36832031 17.59765625 6.8046875 C18.45486635 9.04904073 19.31226391 11.29332225 20.16967773 13.53759766 C20.75255456 15.06356503 21.33524527 16.58960351 21.91772461 18.11572266 C26.23531411 29.42743333 30.60001531 40.72008477 35 52 C35.23581284 51.36328873 35.47162567 50.72657745 35.71458435 50.0705719 C38.1606711 43.46761417 40.61057619 36.86608254 43.06274414 30.26538086 C43.97844705 27.79895108 44.89316248 25.33215445 45.80688477 22.86499023 C47.11738251 19.32700147 48.43137959 15.79033 49.74609375 12.25390625 C50.15653427 11.14350479 50.56697479 10.03310333 50.98985291 8.88905334 C51.37017166 7.86807053 51.75049042 6.84708771 52.14233398 5.79516602 C52.47764633 4.89137711 52.81295868 3.9875882 53.15843201 3.05641174 C54 1 54 1 55 0 C57.5327765 -0.07320163 60.03103918 -0.09227569 62.5625 -0.0625 C64.53271118 -0.0459436 64.53271118 -0.0459436 66.54272461 -0.02905273 C67.68362549 -0.01946533 68.82452637 -0.00987793 70 0 C65.29151289 12.68399096 60.43021271 25.3076349 55.53955078 37.92236328 C54.236556 41.28469174 52.93660788 44.64818861 51.63671875 48.01171875 C50.80487243 50.15892582 49.97284783 52.30606383 49.140625 54.453125 C48.75416809 55.45410217 48.36771118 56.45507935 47.96954346 57.48638916 C47.60866638 58.41546082 47.24778931 59.34453247 46.87597656 60.30175781 C46.56098206 61.11509583 46.24598755 61.92843384 45.92144775 62.76641846 C45.04631585 64.88773077 44.02623796 66.94752408 43 69 C37.72 69 32.44 69 27 69 C23.67538186 61.81223594 20.57321226 54.59897252 17.71484375 47.21484375 C17.33187637 46.23310684 16.948909 45.25136993 16.55433655 44.23988342 C15.34583577 41.14020472 14.1415238 38.03892009 12.9375 34.9375 C11.72897777 31.83287725 10.51958929 28.72859327 9.30995178 25.62440491 C8.56222574 23.70468126 7.81529221 21.78464866 7.06932068 19.86424255 C6.72538773 18.97954788 6.38145477 18.09485321 6.02709961 17.18334961 C5.52954666 15.90269119 5.52954666 15.90269119 5.02194214 14.59616089 C3.62691223 11.05220087 2.18192323 7.52891299 0.72901917 4.00831604 C0 2 0 2 0 0 Z " fill="#6BA543" transform="translate(1608,419)"/>
<path d="M0 0 C18.15 0 36.3 0 55 0 C55 3.63 55 7.26 55 11 C48.07 11 41.14 11 34 11 C34 30.14 34 49.28 34 69 C29.71 69 25.42 69 21 69 C21 49.86 21 30.72 21 11 C14.07 11 7.14 11 0 11 C0 7.37 0 3.74 0 0 Z " fill="#6BA543" transform="translate(1232,419)"/>
<path d="M0 0 C17.82 0 35.64 0 54 0 C54 3.63 54 7.26 54 11 C47.4 11 40.8 11 34 11 C34 30.14 34 49.28 34 69 C29.71 69 25.42 69 21 69 C21 49.86 21 30.72 21 11 C14.07 11 7.14 11 0 11 C0 7.37 0 3.74 0 0 Z " fill="#6BA543" transform="translate(1467,419)"/>
<path d="M0 0 C4.29 0 8.58 0 13 0 C13 22.77 13 45.54 13 69 C8.71 69 4.42 69 0 69 C0 46.23 0 23.46 0 0 Z " fill="#6BA543" transform="translate(1560,419)"/>
<path d="M0 0 C4.29 0 8.58 0 13 0 C13 22.77 13 45.54 13 69 C8.71 69 4.42 69 0 69 C0 46.23 0 23.46 0 0 Z " fill="#6BA543" transform="translate(1325,419)"/>
<path d="M0 0 C4.29 0 8.58 0 13 0 C13 22.77 13 45.54 13 69 C8.71 69 4.42 69 0 69 C0 46.23 0 23.46 0 0 Z " fill="#6BA543" transform="translate(1181,419)"/>
<path d="M0 0 C4.29 0 8.58 0 13 0 C13 22.77 13 45.54 13 69 C8.71 69 4.42 69 0 69 C0 46.23 0 23.46 0 0 Z " fill="#6BA543" transform="translate(1023,419)"/>
</svg>
